<svg width="20" height="20" viewBox="0 0 20 20" fill="none" xmlns="http://www.w3.org/2000/svg">
<path class="st" d="M12.5 12.5L12.5 13C12.5 13.3283 12.4353 13.6534 12.3097 13.9567C12.1841 14.26 11.9999 14.5356 11.7678 14.7678C11.5356 14.9999 11.26 15.1841 10.9567 15.3097C10.6534 15.4353 10.3283 15.5 10 15.5C9.67169 15.5 9.34661 15.4353 9.04329 15.3097C8.73998 15.1841 8.46438 14.9999 8.23223 14.7678C8.00009 14.5356 7.81594 14.26 7.6903 13.9567C7.56466 13.6534 7.5 13.3283 7.5 13L7.5 12.5M7.5 7.5L7.5 7C7.5 6.6717 7.56466 6.34661 7.6903 6.04329C7.81594 5.73998 8.00009 5.46438 8.23223 5.23223C8.70107 4.76339 9.33696 4.5 10 4.5C10.663 4.5 11.2989 4.76339 11.7678 5.23223C12.2366 5.70107 12.5 6.33696 12.5 7L12.5 7.5" />
<path class="accented-st" d="M10.0002 7.99951L10.0002 11.9995" />
</svg>
