<svg width="20" height="20" viewBox="0 0 20 20" fill="none" xmlns="http://www.w3.org/2000/svg">
<line class="st" x1="1" y1="-1" x2="15" y2="-1" transform="matrix(-5.46392e-08 -1 -1 3.49691e-08 3 18)" />
<path class="accented-fl" d="M7 17C7 17.5523 7.44772 18 8 18C8.55229 18 9 17.5523 9 17L7 17ZM9 3C9 2.44772 8.55228 2 8 2C7.44772 2 7 2.44772 7 3L9 3ZM17 11C17.5523 11 18 10.5523 18 10C18 9.44772 17.5523 9 17 9V11ZM11 10L10.2929 9.29289C10.1054 9.48043 10 9.73478 10 10C10 10.2652 10.1054 10.5196 10.2929 10.7071L11 10ZM13.2929 13.7071C13.6834 14.0976 14.3166 14.0976 14.7071 13.7071C15.0976 13.3166 15.0976 12.6834 14.7071 12.2929L13.2929 13.7071ZM14.7071 7.70711C15.0976 7.31658 15.0976 6.68342 14.7071 6.29289C14.3166 5.90237 13.6834 5.90237 13.2929 6.29289L14.7071 7.70711ZM9 17L9 3L7 3L7 17L9 17ZM17 9H11V11H17V9ZM10.2929 10.7071L13.2929 13.7071L14.7071 12.2929L11.7071 9.29289L10.2929 10.7071ZM11.7071 10.7071L14.7071 7.70711L13.2929 6.29289L10.2929 9.29289L11.7071 10.7071Z" />
</svg>
