<svg width="30" height="30" viewBox="0 0 30 30" fill="none" xmlns="http://www.w3.org/2000/svg">
  <path class="st" fill-rule="evenodd" clip-rule="evenodd" d="M15 2C7.8203 2 2 7.8203 2 15C2 22.1797 7.8203 28 15 28C22.1797 28 28 22.1797 28 15C28 7.8203 22.1797 2 15 2ZM10.4975 12C9.90643 12 9.40657 11.5233 9.49197 10.9385C9.54874 10.5497 9.64575 10.1858 9.78403 9.76881C10.0537 9.00638 10.433 8.34792 10.9218 7.79343C11.4106 7.22161 12.009 6.77975 12.7169 6.46785C13.4249 6.15595 14.2171 6 15.0936 6C15.8858 6 16.6022 6.12129 17.2427 6.36388C17.9001 6.58915 18.4648 6.92704 18.9367 7.37756C19.4087 7.81076 19.7711 8.34792 20.0239 8.98905C20.2936 9.63019 20.4285 10.3666 20.4285 11.1984C20.4285 11.7355 20.3611 12.2207 20.2262 12.6539C20.1082 13.0698 19.9481 13.451 19.7458 13.7975C19.5436 14.1441 19.3076 14.4647 19.0379 14.7592C18.785 15.0538 18.5238 15.3397 18.2541 15.617C17.9844 15.8769 17.7147 16.1455 17.445 16.4227C17.1922 16.6826 16.9562 16.9685 16.7371 17.2804C16.669 17.3796 16.5908 17.4733 16.512 17.5678C16.3567 17.754 16.1986 17.9435 16.1091 18.1849C15.9948 18.4935 15.9952 18.5409 15.998 18.8228C15.9985 18.8734 15.9991 18.9315 15.9991 19V19.0173C15.9991 19.5676 15.553 20.0137 15.0028 20.0137C14.4525 20.0137 14.0064 19.5676 14.0064 19.0173V18.7921C14.0401 18.0643 14.0654 17.9129 14.2845 17.4104C14.5205 16.8906 14.7986 16.4314 15.1189 16.0328C15.456 15.6343 15.8016 15.2704 16.1555 14.9412C16.5264 14.5946 16.8635 14.2394 17.1669 13.8755C17.4871 13.4943 17.74 13.0784 17.9254 12.6279C18.1108 12.1774 18.1867 11.6316 18.1529 10.9904C18.0855 10.0374 17.7821 9.29229 17.2427 8.75513C16.7202 8.21797 16.0038 7.94938 15.0936 7.94938C14.4868 7.94938 13.9643 8.06202 13.526 8.28728C13.0878 8.51254 12.7169 8.81578 12.4135 9.19699C12.127 9.5782 11.9163 10.0287 11.7814 10.5486C11.7464 10.6838 11.7161 10.8058 11.6904 10.923C11.5624 11.5083 11.0966 12 10.4975 12ZM14.9995 24.0154C15.5518 24.0154 15.9995 23.5676 15.9995 23.0154C15.9995 22.4631 15.5518 22.0154 14.9995 22.0154C14.4472 22.0154 13.9995 22.4631 13.9995 23.0154C13.9995 23.5676 14.4472 24.0154 14.9995 24.0154Z" />
</svg>